<svg width="80" height="80" viewBox="0 0 80 80" fill="none" xmlns="http://www.w3.org/2000/svg">
<path d="M0 40C0 17.9086 17.9086 0 40 0C62.0914 0 80 17.9086 80 40C80 62.0914 62.0914 80 40 80C17.9086 80 0 62.0914 0 40Z" fill="#F3F3F3"/>
<path d="M48.9356 43.375L50.0021 36.4979H43.3338V32.0351C43.3338 30.1537 44.2653 28.3197 47.2518 28.3197H50.2833V22.4646C50.2833 22.4646 47.5323 22 44.9021 22C39.4105 22 35.821 25.2938 35.821 31.2566V36.4979H29.7168V43.375H35.821V60H43.3338V43.375H48.9356Z" fill="black"/>
</svg>
