<svg width="40" height="40" viewBox="0 0 40 40" fill="none" xmlns="http://www.w3.org/2000/svg">
<path d="M0 20C0 8.95431 8.95431 0 20 0C31.0457 0 40 8.95431 40 20C40 31.0457 31.0457 40 20 40C8.95431 40 0 31.0457 0 20Z" fill="#3B5998"/>
<g clip-path="url(#clip0_1_208)">
<path d="M24.4678 21.6875L25.001 18.2489H21.6669V16.0176C21.6669 15.0768 22.1326 14.1599 23.6259 14.1599H25.1416V11.2323C25.1416 11.2323 23.7661 11 22.451 11C19.7053 11 17.9105 12.6469 17.9105 15.6283V18.2489H14.8584V21.6875H17.9105V30H21.6669V21.6875H24.4678Z" fill="white"/>
</g>
<defs>
<clipPath id="clip0_1_208">
<rect width="12" height="19" fill="white" transform="translate(14 11)"/>
</clipPath>
</defs>
</svg>
