<svg width="80" height="80" viewBox="0 0 80 80" fill="none" xmlns="http://www.w3.org/2000/svg">
<path d="M0 40C0 17.9086 17.9086 0 40 0C62.0914 0 80 17.9086 80 40C80 62.0914 62.0914 80 40 80C17.9086 80 0 62.0914 0 40Z" fill="#F3F3F3"/>
<g clip-path="url(#clip0_1_373)">
<path d="M54.2996 33.0367C54.3224 33.3455 54.3224 33.6544 54.3224 33.9632C54.3224 43.3823 46.8986 54.2353 33.33 54.2353C29.1498 54.2353 25.2665 53.0661 22 51.0368C22.5939 51.1029 23.165 51.125 23.7817 51.125C27.2309 51.125 30.4061 50 32.9417 48.0809C29.698 48.0147 26.9797 45.9633 26.0431 43.1397C26.5 43.2058 26.9569 43.25 27.4366 43.25C28.099 43.25 28.7615 43.1617 29.3782 43.0074C25.9975 42.3455 23.4619 39.4779 23.4619 36.0147V35.9265C24.4441 36.4559 25.5863 36.7868 26.7969 36.8308C24.8096 35.5514 23.5076 33.3676 23.5076 30.897C23.5076 29.5735 23.873 28.3603 24.5126 27.3014C28.1446 31.625 33.6041 34.4484 39.7259 34.7573C39.6117 34.2279 39.5431 33.6765 39.5431 33.125C39.5431 29.1985 42.8325 26 46.9213 26C49.0457 26 50.9644 26.8603 52.3122 28.25C53.9797 27.9412 55.5787 27.3456 56.995 26.5294C56.4467 28.1839 55.2817 29.5736 53.7513 30.4559C55.2361 30.3015 56.6752 29.9044 58 29.353C56.9951 30.7647 55.7387 32.022 54.2996 33.0367Z" fill="black"/>
</g>
<defs>
<clipPath id="clip0_1_373">
<rect width="36" height="30" fill="white" transform="translate(22 26)"/>
</clipPath>
</defs>
</svg>
