<svg width="80" height="80" viewBox="0 0 80 80" fill="none" xmlns="http://www.w3.org/2000/svg">
<path d="M0 40C0 17.9086 17.9086 0 40 0V0C62.0914 0 80 17.9086 80 40V40C80 62.0914 62.0914 80 40 80V80C17.9086 80 0 62.0914 0 40V40Z" fill="#F3F3F3"/>
<path fill-rule="evenodd" clip-rule="evenodd" d="M54 25.75C50.25 22 45.25 20 40 20C29 20 20 29 20 40C20 43.5 21 47 22.75 50L20 60L30.5 57.25C33.5 58.75 36.75 59.75 40 59.75C51 59.75 60 50.75 60 39.75C60 34.5 57.75 29.5 54 25.75ZM40 56.5C37 56.5 34 55.75 31.5 54.25L31 54L24.75 55.75L26.5 49.75L26 49C24.25 46.25 23.5 43.25 23.5 40.25C23.5 31.25 31 23.75 40 23.75C44.5 23.75 48.5 25.5 51.75 28.5C55 31.75 56.5 35.75 56.5 40.25C56.5 49 49.25 56.5 40 56.5ZM49 44C48.5 43.75 46 42.5 45.5 42.5C45 42.25 44.75 42.25 44.5 42.75C44.25 43.25 43.25 44.25 43 44.75C42.75 45 42.5 45 42 45C41.5 44.75 40 44.25 38 42.5C36.5 41.25 35.5 39.5 35.25 39C35 38.5 35.25 38.25 35.5 38C35.75 37.75 36 37.5 36.25 37.25C36.5 37 36.5 36.75 36.75 36.5C37 36.25 36.75 36 36.75 35.75C36.75 35.5 35.75 33 35.25 32C35 31.25 34.5 31.25 34.25 31.25C34 31.25 33.75 31.25 33.25 31.25C33 31.25 32.5 31.25 32 31.75C31.5 32.25 30.25 33.5 30.25 36C30.25 38.5 32 40.75 32.25 41.25C32.5 41.5 35.75 46.75 40.75 48.75C45 50.5 45.75 50 46.75 50C47.75 50 49.75 48.75 50 47.75C50.5 46.5 50.5 45.5 50.25 45.5C50 44.25 49.5 44.25 49 44Z" fill="black"/>
</svg>
